<svg xmlns="http://www.w3.org/2000/svg" version="1.1" xmlns:xlink="http://www.w3.org/1999/xlink" width="512" height="512" x="0" y="0" viewBox="0 0 24 24" style="enable-background:new 0 0 512 512" xml:space="preserve"><g><path d="M18 21.75H6A3.383 3.383 0 0 1 2.25 18V9.732A3.246 3.246 0 0 1 3.7 7.028L9.92 2.88a3.741 3.741 0 0 1 4.16 0l6.22 4.148a3.246 3.246 0 0 1 1.447 2.7V18A3.383 3.383 0 0 1 18 21.75zm-6-18a2.243 2.243 0 0 0-1.248.379L4.529 8.276a1.747 1.747 0 0 0-.779 1.456V18c0 1.577.673 2.25 2.25 2.25h12c1.577 0 2.25-.673 2.25-2.25V9.732a1.747 1.747 0 0 0-.779-1.456l-6.223-4.148A2.243 2.243 0 0 0 12 3.749zm.857 11.191 4.584-3.334a.749.749 0 0 0-.882-1.212l-4.583 3.333a.185.185 0 0 1-.217 0l-4.584-3.334a.75.75 0 1 0-.883 1.212l4.584 3.334a1.68 1.68 0 0 0 1.981 0z" fill="#000000" opacity="1" data-original="#000000"></path></g></svg>