<svg width="215" height="211" viewBox="0 0 215 211" fill="none" xmlns="http://www.w3.org/2000/svg">
<path d="M215 141.97H132.52V94.249H215V141.97ZM133.023 141.467H214.497V94.7522H133.023V141.467Z" fill="#E0E0E0"/>
<path d="M197.984 119.694H143.566V121.289H197.984V119.694Z" fill="#F0F0F0"/>
<path d="M201.734 125.642H143.566V127.383H201.734V125.642Z" fill="#F0F0F0"/>
<path d="M201.734 131.66H143.566V133.401H201.734V131.66Z" fill="#F0F0F0"/>
<path d="M162.585 111.055H143.566V115.196H162.585V111.055Z" fill="#F0F0F0"/>
<path d="M214.748 94.501H132.787V102.099H214.748V94.501Z" fill="#E0E0E0"/>
<path d="M208.442 100.962C208.337 100.861 209.394 99.5881 210.798 98.1188C212.202 96.6496 213.435 95.5376 213.535 95.6332C213.636 95.7288 212.584 97.0068 211.18 98.4811C209.776 99.9554 208.543 101.062 208.442 100.962Z" fill="white"/>
<path d="M213.546 100.962C213.445 101.063 212.217 99.9556 210.808 98.4813C209.399 97.007 208.347 95.7339 208.453 95.6333C208.558 95.5327 209.781 96.6396 211.19 98.119C212.6 99.5983 213.641 100.861 213.546 100.962Z" fill="white"/>
<path d="M113.506 0H31.5447V47.2227H113.506V0Z" fill="#E6E6E6"/>
<path d="M96.7477 25.1987H42.3296V26.7938H96.7477V25.1987Z" fill="#F0F0F0"/>
<path d="M100.497 31.1465H42.3296V32.8875H100.497V31.1465Z" fill="#F0F0F0"/>
<path d="M100.497 37.1646H42.3296V38.9055H100.497V37.1646Z" fill="#F0F0F0"/>
<path d="M61.348 16.5596H42.3296V20.7007H61.348V16.5596Z" fill="#F0F0F0"/>
<path d="M113.506 0H31.5447V7.5979H113.506V0Z" fill="#E0E0E0"/>
<path d="M106.924 6.42559C106.818 6.32999 107.875 5.05193 109.279 3.58267C110.683 2.1134 111.916 1.00139 112.017 1.10203C112.117 1.20266 111.066 2.47569 109.662 3.94495C108.257 5.41421 107.024 6.51616 106.924 6.42559Z" fill="white"/>
<path d="M112.017 6.42561C111.916 6.52625 110.688 5.41927 109.279 3.94498C107.87 2.47068 106.818 1.20269 106.924 1.10205C107.03 1.00142 108.252 2.1084 109.662 3.58269C111.071 5.05698 112.123 6.33001 112.017 6.42561Z" fill="white"/>
<path d="M82.465 87.7229H0V39.9971H82.465V87.7229ZM0.503265 87.2198H81.9618V40.5002H0.503265V87.2198Z" fill="#E0E0E0"/>
<path d="M65.4547 65.4478H11.0366V67.0428H65.4547V65.4478Z" fill="#F0F0F0"/>
<path d="M69.204 71.395H11.0366V73.136H69.204V71.395Z" fill="#F0F0F0"/>
<path d="M69.204 77.4131H11.0366V79.1541H69.204V77.4131Z" fill="#F0F0F0"/>
<path d="M30.055 56.8081H11.0366V60.9492H30.055V56.8081Z" fill="#F0F0F0"/>
<path d="M82.2135 40.249H0.251709V47.8469H82.2135V40.249Z" fill="#E0E0E0"/>
<path d="M177.638 98.6567H80.8596V185.283H177.638V98.6567Z" fill="#E6E6E6"/>
<path d="M85.7262 71.3701H9.91431V150.122H85.7262V71.3701Z" fill="#F0F0F0"/>
<path d="M85.7262 71.3701H9.91431V79.9492H85.7262V71.3701Z" fill="#E0E0E0"/>
<path d="M16.1749 75.5716C16.1611 75.8827 16.0563 76.1829 15.8733 76.435C15.6904 76.687 15.4375 76.8798 15.146 76.9894C14.8544 77.099 14.5371 77.1206 14.2334 77.0516C13.9297 76.9825 13.653 76.8258 13.4375 76.6008C13.2221 76.3759 13.0775 76.0927 13.0216 75.7863C12.9658 75.48 13.0011 75.164 13.1233 74.8775C13.2454 74.5911 13.449 74.3468 13.7088 74.175C13.9686 74.0032 14.2731 73.9114 14.5846 73.9111C15.0153 73.9217 15.4244 74.1023 15.7223 74.4134C16.0203 74.7245 16.183 75.1409 16.1749 75.5716Z" fill="white"/>
<path d="M22.6317 75.5711C22.6189 75.8837 22.5144 76.1856 22.3313 76.4393C22.1482 76.6929 21.8944 76.8871 21.6018 76.9977C21.3091 77.1083 20.9903 77.1305 20.6851 77.0613C20.38 76.9922 20.1019 76.8348 19.8855 76.6089C19.6691 76.3829 19.5239 76.0983 19.468 75.7905C19.4122 75.4827 19.448 75.1652 19.5712 74.8777C19.6944 74.5901 19.8995 74.3451 20.1609 74.1732C20.4223 74.0012 20.7285 73.9099 21.0414 73.9106C21.4721 73.9212 21.8812 74.1018 22.1792 74.4129C22.4771 74.724 22.6399 75.1404 22.6317 75.5711Z" fill="white"/>
<path d="M29.0888 75.5711C29.0759 75.8837 28.9715 76.1856 28.7883 76.4393C28.6052 76.6929 28.3515 76.8871 28.0588 76.9977C27.7661 77.1083 27.4473 77.1305 27.1422 77.0613C26.837 76.9922 26.5589 76.8348 26.3425 76.6089C26.1261 76.3829 25.9809 76.0983 25.9251 75.7905C25.8692 75.4827 25.9051 75.1652 26.0283 74.8777C26.1515 74.5901 26.3565 74.3451 26.6179 74.1732C26.8793 74.0012 27.1856 73.9099 27.4985 73.9106C27.9292 73.9212 28.3382 74.1018 28.6362 74.4129C28.9342 74.724 29.0969 75.1404 29.0888 75.5711Z" fill="white"/>
<path d="M204.175 17.2231H107.397V113.661H204.175V17.2231Z" fill="#F0F0F0"/>
<path d="M204.175 17.2231H107.397V28.5194H204.175V17.2231Z" fill="#E0E0E0"/>
<path d="M115.64 22.7581C115.623 23.1688 115.485 23.5652 115.243 23.8981C115.002 24.2311 114.669 24.4859 114.284 24.6309C113.899 24.7759 113.481 24.8047 113.08 24.7138C112.679 24.6229 112.313 24.4163 112.029 24.1196C111.744 23.8228 111.553 23.4491 111.479 23.0447C111.405 22.6404 111.452 22.2232 111.613 21.8451C111.774 21.4669 112.043 21.1444 112.386 20.9176C112.729 20.6908 113.131 20.5697 113.542 20.5693C114.11 20.5825 114.65 20.8203 115.043 21.2305C115.436 21.6407 115.651 22.19 115.64 22.7581Z" fill="white"/>
<path d="M123.526 21.2794C123.805 21.5823 123.989 21.9606 124.055 22.3672C124.12 22.7738 124.064 23.1906 123.895 23.5658C123.725 23.941 123.448 24.2579 123.1 24.4771C122.751 24.6962 122.345 24.808 121.934 24.7984C121.522 24.7888 121.122 24.6582 120.784 24.423C120.446 24.1878 120.185 23.8584 120.032 23.4757C119.88 23.093 119.844 22.674 119.929 22.271C120.013 21.8679 120.214 21.4985 120.507 21.209C120.917 20.8187 121.465 20.607 122.031 20.6202C122.597 20.6334 123.135 20.8705 123.526 21.2794Z" fill="white"/>
<path d="M132.641 22.7581C132.623 23.1688 132.485 23.5652 132.244 23.8981C132.003 24.2311 131.669 24.4859 131.284 24.6309C130.9 24.7759 130.481 24.8047 130.08 24.7138C129.679 24.6229 129.313 24.4163 129.029 24.1196C128.744 23.8228 128.553 23.4491 128.479 23.0447C128.406 22.6404 128.452 22.2232 128.613 21.8451C128.774 21.4669 129.043 21.1444 129.386 20.9176C129.729 20.6908 130.131 20.5697 130.542 20.5693C131.11 20.5825 131.65 20.8203 132.043 21.2305C132.437 21.6407 132.651 22.19 132.641 22.7581Z" fill="white"/>
<path d="M183.269 210.87C183.269 210.94 148.322 211.001 105.228 211.001C62.1332 211.001 27.1714 210.94 27.1714 210.87C27.1714 210.799 62.1131 210.738 105.228 210.738C148.343 210.738 183.269 210.804 183.269 210.87Z" fill="#263238"/>
<path d="M149.218 149.271C141.443 143.841 139.681 133.763 139.988 124.701C140.039 123.191 139.873 121.591 140.592 120.268C141.312 118.944 142.993 118.034 144.347 118.668C145.469 119.196 145.957 120.504 146.586 121.586C147.425 123.027 148.656 124.201 150.134 124.972C151.095 125.476 152.288 125.777 153.239 125.254C154.548 124.535 154.699 122.738 154.689 121.229C154.689 118.421 154.672 115.617 154.638 112.816C154.548 111.312 154.701 109.803 155.091 108.348C155.559 106.919 156.601 105.595 158.025 105.193C159.45 104.79 161.226 105.62 161.548 107.09C161.604 107.712 161.619 108.337 161.593 108.961C161.634 109.59 161.926 110.28 162.514 110.471C163.103 110.662 163.717 110.224 164.17 109.782C165.72 108.272 166.777 106.305 167.758 104.362C168.74 102.42 169.701 100.423 171.11 98.7672C172.519 97.1118 174.467 95.7985 176.646 95.6727C178.825 95.5469 181.095 96.8854 181.639 98.9987C182.182 101.112 180.949 103.271 179.625 104.986C177.628 107.533 175.274 109.779 172.635 111.653C172.12 111.935 171.709 112.374 171.462 112.906C171.135 113.913 172.087 114.919 173.078 115.236C174.2 115.608 175.418 115.493 176.601 115.634C177.784 115.774 179.042 116.288 179.49 117.395C180.104 118.934 178.815 120.545 177.552 121.601C175.016 123.714 172.135 125.377 169.037 126.517C167.93 126.92 166.767 127.277 165.871 128.052C164.975 128.827 164.442 130.18 164.98 131.242C165.519 132.304 166.903 132.641 168.065 132.424C169.228 132.208 170.26 131.584 171.367 131.166C173.435 130.387 176.103 130.527 177.406 132.314C177.81 132.929 178.065 133.63 178.153 134.36C178.24 135.091 178.157 135.832 177.909 136.525C177.406 137.905 176.63 139.169 175.63 140.244C172.333 144.181 168.051 147.173 163.219 148.913C158.423 150.574 153.979 151.027 149.213 149.281" fill="#02B634"/>
<path d="M179.424 96.9155C179.424 96.9155 179.379 96.9658 179.278 97.0564L178.83 97.4539C178.438 97.8061 177.859 98.3194 177.129 98.9987C175.06 100.919 173.139 102.993 171.382 105.203C170.26 106.597 169.097 108.177 167.859 109.892C166.621 111.608 165.343 113.46 164.075 115.427C162.722 117.502 161.484 119.649 160.366 121.858C159.782 123.01 159.268 124.213 158.74 125.44L157.18 129.189C155.123 133.911 153.332 138.744 151.815 143.665C150.593 147.692 149.75 151.824 149.299 156.008C149.006 158.832 148.959 161.675 149.158 164.507C149.238 165.513 149.314 166.283 149.384 166.806C149.414 167.058 149.435 167.259 149.455 167.405V167.611C149.433 167.546 149.418 167.478 149.409 167.41C149.384 167.264 149.354 167.068 149.314 166.816C149.223 166.313 149.128 165.518 149.037 164.512C148.794 161.675 148.811 158.822 149.087 155.988C149.511 151.786 150.335 147.635 151.548 143.59C153.053 138.654 154.839 133.809 156.898 129.078L158.498 125.345C159.027 124.122 159.545 122.909 160.134 121.752C161.261 119.536 162.509 117.384 163.873 115.306C165.162 113.294 166.46 111.472 167.683 109.772C168.906 108.071 170.089 106.481 171.206 105.092C172.981 102.888 174.928 100.829 177.029 98.9332C177.773 98.264 178.367 97.7609 178.77 97.4237L179.238 97.0463C179.295 96.9964 179.358 96.9526 179.424 96.9155Z" fill="#263238"/>
<path d="M160.199 121.742C160.128 121.535 160.079 121.321 160.053 121.103C159.973 120.686 159.882 120.097 159.777 119.332C159.56 117.822 159.339 115.754 159.102 113.465C158.866 111.176 158.599 109.103 158.378 107.608C158.262 106.863 158.161 106.265 158.091 105.847C158.036 105.633 158.007 105.414 158.005 105.193C158.092 105.394 158.154 105.606 158.191 105.822C158.302 106.234 158.428 106.828 158.569 107.578C158.856 109.087 159.137 111.14 159.374 113.435C159.611 115.729 159.812 117.742 159.968 119.307C160.043 120.011 160.109 120.61 160.159 121.088C160.198 121.304 160.212 121.523 160.199 121.742Z" fill="#263238"/>
<path d="M179.565 118.13C179.32 118.183 179.071 118.213 178.82 118.22C178.317 118.266 177.602 118.326 176.716 118.427C174.945 118.618 172.509 118.97 169.837 119.473C167.164 119.976 164.764 120.545 163.038 120.983C162.177 121.204 161.483 121.405 161.025 121.541C160.78 121.628 160.527 121.689 160.27 121.722C160.502 121.605 160.745 121.51 160.994 121.436C161.468 121.27 162.152 121.038 163.008 120.792C164.724 120.288 167.124 119.69 169.807 119.176C172.079 118.742 174.372 118.423 176.676 118.22C177.567 118.145 178.287 118.115 178.79 118.105C179.048 118.087 179.308 118.095 179.565 118.13Z" fill="#263238"/>
<path d="M151.795 143.238C151.741 143.165 151.697 143.086 151.664 143.001L151.332 142.302C151.045 141.693 150.657 140.793 150.194 139.691C149.258 137.477 148.066 134.377 146.797 130.935C145.529 127.494 144.362 124.394 143.476 122.155C143.043 121.068 142.686 120.178 142.419 119.513L142.137 118.794C142.098 118.711 142.071 118.623 142.057 118.532C142.11 118.605 142.154 118.685 142.187 118.769L142.52 119.468C142.801 120.077 143.194 120.978 143.657 122.08C144.593 124.294 145.786 127.393 147.054 130.835C148.322 134.276 149.49 137.376 150.376 139.615C150.808 140.702 151.166 141.593 151.427 142.257C151.543 142.544 151.639 142.76 151.714 142.976C151.753 143.059 151.78 143.147 151.795 143.238Z" fill="#263238"/>
<path d="M177.502 134.951C177.421 134.997 177.335 135.032 177.245 135.056L176.5 135.308L173.747 136.199C171.422 136.953 168.211 138.03 164.688 139.218C161.166 140.405 157.94 141.462 155.6 142.166C154.432 142.523 153.481 142.795 152.821 142.976L152.062 143.173C151.973 143.201 151.882 143.219 151.79 143.228C151.87 143.182 151.957 143.146 152.046 143.122L152.791 142.871L155.544 141.98C157.869 141.225 161.08 140.148 164.603 138.961C168.126 137.773 171.347 136.717 173.687 136.012C174.859 135.655 175.806 135.383 176.47 135.202L177.23 135.006C177.318 134.978 177.409 134.959 177.502 134.951Z" fill="#263238"/>
<path d="M167.014 12.8964L164.422 13.8222L163.31 10.4358C161.266 4.19148 154.754 0.875581 148.77 2.98387C142.786 5.09216 139.601 11.9403 141.644 18.1847L142.756 21.571L140.154 22.5019C139.162 22.8867 138.356 23.6389 137.905 24.6022C137.453 25.5655 137.39 26.6659 137.729 27.6745L144.94 49.7084C145.09 50.2077 145.339 50.6719 145.671 51.0732C146.004 51.4746 146.414 51.805 146.877 52.0449C147.34 52.2847 147.846 52.4291 148.366 52.4694C148.886 52.5098 149.408 52.4452 149.903 52.2796L176.762 42.6741C177.767 42.29 178.584 41.5311 179.041 40.557C179.498 39.583 179.56 38.4696 179.213 37.4512L171.996 15.4173C171.842 14.9193 171.59 14.4575 171.254 14.0592C170.918 13.6609 170.505 13.3344 170.04 13.0991C169.575 12.8638 169.067 12.7246 168.547 12.6898C168.027 12.655 167.506 12.7252 167.014 12.8964ZM146.541 16.4186C145.99 14.7949 146.089 13.0211 146.817 11.4688C147.545 9.91644 148.845 8.706 150.446 8.09107C151.237 7.82068 152.073 7.71225 152.907 7.77225C153.74 7.83225 154.552 8.05946 155.296 8.4403C156.039 8.82115 156.699 9.34784 157.234 9.98894C157.77 10.63 158.17 11.3724 158.413 12.1718L159.52 15.5581L147.648 19.8049L146.541 16.4186ZM161.639 35.9718L163.481 41.5973C163.514 41.7101 163.504 41.8316 163.45 41.9365C163.397 42.0415 163.305 42.1218 163.194 42.1608L160.612 43.0816C160.509 43.1101 160.4 43.0977 160.306 43.0471C160.212 42.9964 160.141 42.9114 160.109 42.8099L158.252 37.2096C157.228 37.1538 156.245 36.7866 155.436 36.1572C154.626 35.5277 154.028 34.666 153.722 33.6874C153.285 32.3937 153.364 30.9809 153.945 29.7447C154.526 28.5086 155.562 27.545 156.838 27.0556C157.467 26.8405 158.134 26.7544 158.797 26.8023C159.461 26.8502 160.108 27.0312 160.7 27.3346C161.293 27.6379 161.818 28.0573 162.244 28.5678C162.671 29.0784 162.99 29.6695 163.184 30.3061C163.508 31.3001 163.534 32.367 163.261 33.3761C162.987 34.3851 162.425 35.2924 161.644 35.9869L161.639 35.9718Z" fill="#02B634"/>
<path d="M164.306 13.762C164.306 13.8325 159.5 15.6389 153.521 17.7874C147.542 19.936 142.666 21.6618 142.64 21.6115C142.615 21.5612 147.447 19.7397 153.43 17.5862C159.414 15.4326 164.281 13.6966 164.306 13.762Z" fill="#263238"/>
<path d="M170.013 14.6875C170.035 14.7312 170.054 14.7766 170.068 14.8234C170.109 14.924 170.154 15.0548 170.214 15.2158C170.345 15.5831 170.526 16.0913 170.753 16.7253L172.685 22.3508C173.491 24.7358 174.452 27.5637 175.519 30.7035C176.022 32.2784 176.616 33.9187 177.17 35.6446C177.466 36.534 177.594 37.4708 177.547 38.407C177.504 38.8939 177.366 39.3676 177.139 39.8008C176.897 40.2326 176.574 40.6136 176.188 40.9229C175.411 41.4903 174.548 41.9303 173.632 42.2261L171.04 43.157L166.133 44.913L157.824 47.8717L152.213 49.8441L150.703 50.3473L150.3 50.4781C150.257 50.4973 150.211 50.5092 150.164 50.5133C150.164 50.5133 150.205 50.5133 150.29 50.453L150.683 50.297L152.192 49.7284L157.774 47.6755L166.067 44.6564L170.964 42.8853L173.556 41.9494C174.446 41.6656 175.284 41.239 176.037 40.6864C176.397 40.3994 176.697 40.0457 176.923 39.6448C177.136 39.2442 177.265 38.804 177.3 38.3517C177.347 37.4496 177.224 36.5468 176.938 35.6899C176.395 33.9791 175.821 32.3237 175.302 30.7488C174.256 27.6039 173.289 24.766 172.524 22.381C171.759 19.996 171.115 18.0789 170.672 16.7304C170.461 16.0712 170.3 15.558 170.169 15.1856L170.048 14.7831C170.033 14.7526 170.021 14.7206 170.013 14.6875Z" fill="#263238"/>
<path d="M155.841 7.7493C155.841 7.7493 155.574 7.61847 155.081 7.4172C154.378 7.14714 153.635 6.99744 152.882 6.97441C151.766 6.93616 150.656 7.14582 149.631 7.58828C148.385 8.13924 147.319 9.03041 146.556 10.1595C145.788 11.2853 145.376 12.6158 145.373 13.9786C145.384 15.0955 145.553 16.2052 145.877 17.2743C146.138 18.1901 146.41 18.9197 146.591 19.4279C146.698 19.6861 146.786 19.9518 146.853 20.2229C146.71 19.9816 146.59 19.7272 146.496 19.4631C146.289 18.96 145.992 18.2455 145.7 17.3247C145.342 16.2443 145.147 15.1165 145.122 13.9786C145.108 12.5644 145.53 11.1802 146.329 10.0136C147.119 8.84325 148.228 7.92452 149.525 7.36688C150.582 6.922 151.727 6.72575 152.872 6.79327C153.641 6.83246 154.397 7.01149 155.101 7.3216C155.29 7.40853 155.472 7.50944 155.645 7.6235C155.717 7.65495 155.783 7.69739 155.841 7.7493Z" fill="#263238"/>
<path d="M156.073 27.4384C156.153 27.3897 156.237 27.3477 156.324 27.3126C156.576 27.199 156.837 27.1064 157.104 27.0359C157.528 26.9107 157.966 26.8364 158.408 26.8145C159.009 26.7822 159.61 26.8729 160.174 27.0812C161.463 27.534 162.645 28.8473 163.229 30.6034C163.509 31.5458 163.509 32.5492 163.229 33.4916C162.919 34.5144 162.362 35.4456 161.608 36.2037L161.639 36.0678C162.308 37.9044 163.038 39.8969 163.793 41.975L163.838 42.1008L163.712 42.1461L162.56 42.5285L160.043 43.3688L159.918 43.4091L159.877 43.2833C159.188 41.2002 158.433 39.2579 157.864 37.3509L157.975 37.4364C156.991 37.3547 156.053 36.9855 155.277 36.3747C154.576 35.8344 154 35.1475 153.591 34.3621C153.223 33.6655 153.039 32.8858 153.058 32.0978C153.081 31.2924 153.282 30.5022 153.647 29.7837C154.012 29.0651 154.53 28.4361 155.167 27.9416C155.429 27.729 155.722 27.5592 156.037 27.4384C155.753 27.607 155.478 27.7901 155.212 27.9869C154.513 28.578 153.978 29.3386 153.657 30.1958C153.382 30.8422 153.253 31.5415 153.28 32.2436C153.307 32.9456 153.489 33.633 153.813 34.2564C154.215 35.012 154.776 35.6713 155.459 36.1886C156.198 36.7691 157.093 37.1191 158.03 37.1949H158.116L158.141 37.2704C158.695 39.1422 159.455 41.0995 160.154 43.1927L159.988 43.1122L162.504 42.2719L163.652 41.8845L163.571 42.0556C162.821 39.9775 162.097 37.9799 161.432 36.1433V36.0678L161.493 36.0074C162.224 35.2808 162.77 34.3884 163.083 33.406C163.35 32.5046 163.35 31.5451 163.083 30.6436C162.534 28.953 161.402 27.6699 160.174 27.217C159.631 27.0075 159.05 26.9099 158.468 26.9302C158.033 26.9402 157.601 26.9992 157.18 27.1063C156.43 27.2925 156.078 27.4636 156.073 27.4384Z" fill="#263238"/>
<path d="M140.517 172.724L90.2456 172.493C87.3425 172.477 84.5644 171.309 82.5215 169.247C80.4786 167.185 79.3379 164.396 79.3499 161.493L79.8834 35.4941C79.8893 34.056 80.1787 32.6332 80.7349 31.3071C81.2911 29.9809 82.1033 28.7773 83.125 27.7652C84.1467 26.753 85.3579 25.9521 86.6894 25.4082C88.0209 24.8643 89.4465 24.5881 90.8848 24.5954L141.151 24.8268C144.054 24.8415 146.833 26.0075 148.877 28.0689C150.92 30.1303 152.062 32.9185 152.052 35.8211L151.518 161.815C151.512 163.254 151.223 164.677 150.667 166.004C150.111 167.331 149.299 168.535 148.277 169.548C147.256 170.561 146.045 171.363 144.713 171.908C143.381 172.453 141.956 172.73 140.517 172.724Z" fill="#455A64"/>
<path d="M141.075 29.159H131.332C131.014 29.1649 130.701 29.2334 130.409 29.3605C130.118 29.4876 129.854 29.6708 129.634 29.8998C129.413 30.1287 129.24 30.3989 129.124 30.6948C129.007 30.9908 128.951 31.3067 128.957 31.6245V33.3907C128.963 33.7083 128.906 34.024 128.79 34.3196C128.674 34.6153 128.5 34.8851 128.28 35.1136C128.059 35.3422 127.795 35.525 127.504 35.6516C127.213 35.7781 126.899 35.846 126.581 35.8512L107.588 35.7657C106.946 35.7485 106.336 35.4771 105.894 35.0111C105.451 34.545 105.212 33.9224 105.228 33.28V31.5139C105.244 30.8723 105.005 30.2504 104.564 29.7845C104.122 29.3186 103.514 29.0466 102.873 29.0282H99.4453L90.9149 28.9879C88.886 28.9759 86.9349 29.7681 85.4889 31.1912C84.0429 32.6143 83.2198 34.5523 83.1999 36.5808L82.6966 159.566C82.692 160.572 82.8856 161.57 83.2666 162.501C83.6475 163.433 84.2082 164.28 84.9166 164.995C85.6251 165.71 86.4675 166.278 87.3956 166.668C88.3238 167.057 89.3196 167.26 90.3261 167.265L140.492 167.496C141.499 167.501 142.497 167.307 143.429 166.926C144.362 166.545 145.21 165.984 145.925 165.275C146.641 164.566 147.21 163.723 147.599 162.795C147.989 161.866 148.192 160.87 148.197 159.863L148.7 36.8777C148.712 34.8434 147.916 32.8876 146.486 31.4402C145.056 29.9928 143.11 29.1723 141.075 29.159Z" fill="white"/>
<path d="M134.327 151.087L97.0246 150.926C96.6371 150.926 96.3251 150.503 96.3301 149.99L96.3704 140.234C96.3704 139.731 96.6875 139.298 97.075 139.298L134.377 139.469C134.592 139.506 134.784 139.625 134.913 139.8C135.043 139.975 135.099 140.194 135.072 140.41L135.036 150.156C135.036 150.675 134.714 151.092 134.327 151.087Z" fill="#02B634"/>
<path d="M109.647 150.246C109.224 150.246 108.817 150.178 108.427 150.043C108.042 149.902 107.744 149.723 107.533 149.506L107.768 149.043C107.969 149.238 108.237 149.403 108.573 149.539C108.915 149.669 109.273 149.734 109.647 149.734C110.004 149.734 110.294 149.69 110.517 149.604C110.744 149.512 110.91 149.39 111.013 149.238C111.121 149.086 111.175 148.918 111.175 148.734C111.175 148.511 111.11 148.332 110.98 148.197C110.856 148.061 110.69 147.956 110.484 147.88C110.278 147.799 110.051 147.728 109.801 147.668C109.552 147.609 109.302 147.546 109.053 147.481C108.804 147.411 108.573 147.319 108.362 147.205C108.156 147.091 107.988 146.942 107.858 146.758C107.733 146.568 107.671 146.321 107.671 146.018C107.671 145.736 107.744 145.478 107.89 145.245C108.042 145.007 108.273 144.817 108.581 144.676C108.89 144.53 109.286 144.457 109.769 144.457C110.088 144.457 110.406 144.503 110.72 144.595C111.034 144.682 111.305 144.804 111.533 144.961L111.33 145.44C111.086 145.278 110.826 145.159 110.549 145.083C110.278 145.007 110.015 144.969 109.761 144.969C109.419 144.969 109.137 145.015 108.915 145.107C108.693 145.199 108.527 145.324 108.419 145.481C108.316 145.633 108.264 145.806 108.264 146.002C108.264 146.224 108.327 146.403 108.451 146.538C108.581 146.674 108.75 146.779 108.956 146.855C109.167 146.931 109.397 146.999 109.647 147.059C109.896 147.118 110.143 147.183 110.387 147.254C110.636 147.324 110.864 147.416 111.07 147.53C111.281 147.639 111.449 147.785 111.574 147.969C111.704 148.154 111.769 148.395 111.769 148.693C111.769 148.969 111.693 149.227 111.541 149.465C111.39 149.699 111.156 149.888 110.842 150.035C110.533 150.176 110.135 150.246 109.647 150.246ZM113.08 150.197V144.505H113.682V150.197H113.08ZM115.534 150.197V144.505H116.03L119.957 149.449H119.697V144.505H120.29V150.197H119.794L115.875 145.253H116.135V150.197H115.534ZM124.645 150.246C124.211 150.246 123.81 150.176 123.441 150.035C123.078 149.888 122.761 149.685 122.49 149.425C122.224 149.165 122.015 148.858 121.864 148.506C121.717 148.154 121.644 147.769 121.644 147.351C121.644 146.934 121.717 146.549 121.864 146.197C122.015 145.844 122.227 145.538 122.498 145.278C122.769 145.018 123.086 144.817 123.449 144.676C123.818 144.53 124.219 144.457 124.653 144.457C125.086 144.457 125.482 144.524 125.84 144.66C126.203 144.795 126.512 145.001 126.767 145.278L126.393 145.66C126.154 145.421 125.891 145.251 125.604 145.148C125.317 145.045 125.008 144.993 124.677 144.993C124.325 144.993 124 145.053 123.701 145.172C123.409 145.286 123.151 145.451 122.929 145.668C122.712 145.88 122.541 146.129 122.417 146.416C122.297 146.698 122.238 147.01 122.238 147.351C122.238 147.687 122.297 147.999 122.417 148.286C122.541 148.574 122.712 148.826 122.929 149.043C123.151 149.254 123.409 149.419 123.701 149.539C124 149.652 124.322 149.709 124.669 149.709C124.994 149.709 125.301 149.661 125.588 149.563C125.881 149.465 126.149 149.3 126.393 149.067L126.734 149.522C126.463 149.761 126.146 149.942 125.783 150.067C125.42 150.186 125.04 150.246 124.645 150.246ZM126.157 149.449V147.351H126.734V149.522L126.157 149.449ZM132.858 150.246C132.132 150.246 131.56 150.037 131.143 149.62C130.725 149.203 130.517 148.585 130.517 147.766V144.505H131.118V147.742C131.118 148.414 131.27 148.91 131.574 149.23C131.877 149.549 132.306 149.709 132.858 149.709C133.417 149.709 133.848 149.549 134.151 149.23C134.455 148.91 134.607 148.414 134.607 147.742V144.505H135.192V147.766C135.192 148.585 134.983 149.203 134.566 149.62C134.154 150.037 133.585 150.246 132.858 150.246ZM137.005 150.197V144.505H139.136C139.618 144.505 140.033 144.584 140.38 144.741C140.727 144.893 140.992 145.115 141.177 145.408C141.366 145.695 141.461 146.045 141.461 146.457C141.461 146.858 141.366 147.205 141.177 147.498C140.992 147.785 140.727 148.007 140.38 148.164C140.033 148.322 139.618 148.4 139.136 148.4H137.339L137.607 148.116V150.197H137.005ZM137.607 148.164L137.339 147.872H139.119C139.689 147.872 140.12 147.75 140.412 147.506C140.711 147.256 140.86 146.907 140.86 146.457C140.86 146.002 140.711 145.649 140.412 145.4C140.12 145.15 139.689 145.026 139.119 145.026H137.339L137.607 144.741V148.164Z" fill="#E8E8E3"/>
<path d="M104.465 65.3117L91.521 65.2529L91.5102 67.6279L104.454 67.6866L104.465 65.3117Z" fill="#02B634"/>
<path opacity="0.1" d="M104.465 65.3117L91.521 65.2529L91.5102 67.6279L104.454 67.6866L104.465 65.3117Z" fill="black"/>
<path d="M142.409 79.8938C142.511 79.8835 142.611 79.8598 142.706 79.8233C142.845 79.7689 142.966 79.6763 143.056 79.5561C143.145 79.436 143.198 79.2931 143.209 79.1441C143.209 78.344 143.209 77.1767 143.209 75.6772C143.209 74.9275 143.209 74.0872 143.209 73.1613C143.209 72.9349 143.209 72.6984 143.209 72.4619C143.242 72.2325 143.192 71.9988 143.068 71.8028C142.999 71.7088 142.909 71.6322 142.805 71.5789C142.701 71.5256 142.586 71.4972 142.47 71.4959H141.684H134.412L92.3192 71.3399C92.2114 71.338 92.1048 71.3622 92.0085 71.4104C91.9121 71.4586 91.8288 71.5293 91.7656 71.6166C91.6441 71.8134 91.5976 72.0475 91.6347 72.2758C91.6347 72.7789 91.6347 73.2821 91.6347 73.7853C91.6347 74.7916 91.6347 75.798 91.6347 76.8043C91.6347 77.3075 91.6347 77.8107 91.6347 78.3138C91.6139 78.5482 91.6139 78.7839 91.6347 79.0183C91.6612 79.1187 91.7103 79.2118 91.7784 79.2903C91.8464 79.3688 91.9316 79.4307 92.0273 79.4711C92.1264 79.5106 92.2326 79.5294 92.3393 79.5265H94.9009L106.078 79.5869L125.001 79.7026L137.759 79.8032L141.226 79.8435H142.127C142.334 79.8435 142.434 79.8435 142.434 79.8435H142.127H141.226H137.759H125.001L106.078 79.7831L94.9009 79.7378H92.3393C92.1983 79.7435 92.0577 79.7195 91.9266 79.6674C91.7941 79.6108 91.6763 79.5248 91.5821 79.4158C91.4879 79.3068 91.4198 79.1777 91.3831 79.0384C91.354 78.9063 91.3438 78.7708 91.3529 78.6359V78.2635C91.3529 77.7603 91.3529 77.2572 91.3529 76.754C91.3529 75.7477 91.3529 74.7413 91.3529 73.735C91.3529 73.2318 91.3529 72.7286 91.3529 72.2254C91.3433 72.0914 91.3433 71.9569 91.3529 71.8229C91.3718 71.6749 91.429 71.5344 91.519 71.4153C91.6058 71.2939 91.7207 71.1952 91.8539 71.1278C91.9871 71.0603 92.1346 71.026 92.2839 71.0279L134.377 71.2594L141.649 71.3097H142.434C142.573 71.3098 142.709 71.3432 142.832 71.4072C142.954 71.4711 143.06 71.5637 143.139 71.677C143.281 71.8958 143.338 72.1587 143.3 72.4167C143.3 72.6531 143.3 72.8896 143.3 73.1161C143.3 74.0318 143.3 74.8721 143.3 75.6319C143.3 77.1414 143.265 78.2987 143.255 79.1038C143.242 79.2586 143.186 79.4067 143.092 79.5306C142.999 79.6545 142.872 79.7491 142.726 79.8032C142.631 79.8622 142.521 79.8936 142.409 79.8938Z" fill="#E0E0E0"/>
<path d="M119.083 73.8657H95.4092V76.0847H119.083V73.8657Z" fill="#02B634"/>
<path opacity="0.2" d="M119.083 73.8657H95.4092V76.0847H119.083V73.8657Z" fill="white"/>
<path d="M104.377 86.9777L91.4329 86.9189L91.4221 89.2939L104.366 89.3526L104.377 86.9777Z" fill="#02B634"/>
<path opacity="0.1" d="M104.377 86.9777L91.4329 86.9189L91.4221 89.2939L104.366 89.3526L104.377 86.9777Z" fill="black"/>
<path d="M142.082 101.561C142.183 101.548 142.284 101.53 142.384 101.505C142.524 101.46 142.654 101.386 142.763 101.287C142.872 101.188 142.959 101.067 143.018 100.932C143.097 100.728 143.128 100.51 143.109 100.293C143.109 100.051 143.109 99.7894 143.109 99.4975C143.109 98.9139 143.109 98.2497 143.109 97.4848V94.2897C143.133 94.0584 143.081 93.8255 142.963 93.6255C142.838 93.4204 142.643 93.2682 142.414 93.1978C142.163 93.1531 141.908 93.1396 141.654 93.1576H134.412L92.4649 93.0016C92.2393 93.0021 92.0215 93.0845 91.8521 93.2336C91.6827 93.3826 91.5732 93.588 91.5439 93.8117C91.5439 94.2897 91.5439 94.818 91.5439 95.3212C91.5439 96.3276 91.5439 97.3339 91.5439 98.3402C91.5439 98.8434 91.5439 99.3466 91.5439 99.8498C91.5252 100.085 91.5353 100.321 91.5741 100.554C91.637 100.758 91.7663 100.935 91.9415 101.057C92.1274 101.175 92.3458 101.232 92.5656 101.218H93.2651H94.7195L105.857 101.274L124.714 101.389L137.427 101.49L140.884 101.53H137.427H124.714L105.847 101.51L94.7095 101.47H92.5203C92.2481 101.486 91.9779 101.414 91.7503 101.264C91.5213 101.105 91.3542 100.872 91.2772 100.605C91.2321 100.349 91.2186 100.089 91.2369 99.8296C91.2369 99.3265 91.2369 98.8233 91.2369 98.3201C91.2369 97.3138 91.2369 96.3074 91.2369 95.3011C91.2369 94.7979 91.2369 94.2947 91.2369 93.7916C91.2737 93.5038 91.414 93.2394 91.6317 93.0477C91.8494 92.8559 92.1295 92.7501 92.4196 92.75L134.367 92.9815L141.609 93.0368C141.878 93.0203 142.149 93.0389 142.414 93.0922C142.675 93.1776 142.896 93.3568 143.033 93.5953C143.163 93.817 143.22 94.0742 143.194 94.33C143.194 94.5665 143.194 94.7979 143.194 95.0294C143.194 95.9401 143.194 96.7754 143.194 97.5452C143.194 98.3151 143.194 98.9642 143.194 99.5579C143.194 99.8447 143.194 100.111 143.194 100.358C143.212 100.583 143.176 100.809 143.088 101.017C143.023 101.156 142.929 101.279 142.811 101.378C142.694 101.477 142.557 101.55 142.409 101.591C142.299 101.6 142.188 101.59 142.082 101.561Z" fill="#E0E0E0"/>
<path d="M104.279 109.585L91.3352 109.526L91.3244 111.901L104.268 111.96L104.279 109.585Z" fill="#02B634"/>
<path opacity="0.1" d="M104.279 109.585L91.3352 109.526L91.3244 111.901L104.268 111.96L104.279 109.585Z" fill="black"/>
<path d="M141.981 124.158C142.083 124.146 142.184 124.127 142.283 124.102C142.423 124.058 142.552 123.984 142.661 123.886C142.771 123.788 142.858 123.668 142.917 123.534C142.996 123.331 143.027 123.112 143.008 122.895C143.008 122.648 143.008 122.392 143.008 122.095C143.008 121.516 143.008 120.847 143.008 120.082V116.887C143.032 116.656 142.981 116.423 142.862 116.223C142.735 116.021 142.541 115.872 142.314 115.8C142.063 115.753 141.808 115.738 141.554 115.755H134.312L92.3644 115.599C92.1388 115.599 91.9211 115.682 91.7517 115.831C91.5823 115.98 91.4727 116.185 91.4435 116.409C91.4435 116.912 91.4435 117.415 91.4435 117.918C91.4435 118.925 91.4435 119.931 91.4435 120.937C91.4435 121.441 91.4435 121.944 91.4435 122.447C91.4247 122.68 91.4349 122.915 91.4737 123.146C91.5339 123.352 91.6638 123.53 91.841 123.649C92.0258 123.77 92.2451 123.827 92.4651 123.81H94.6543L105.792 123.871L124.649 123.987L137.361 124.087L140.819 124.127H137.361H124.649L105.792 124.072L94.6543 124.027H92.4651C92.1927 124.045 91.9218 123.973 91.6951 123.821C91.4661 123.662 91.299 123.429 91.222 123.161C91.1769 122.906 91.1634 122.645 91.1818 122.387C91.1818 121.883 91.1818 121.38 91.1818 120.877C91.1818 119.871 91.1818 118.864 91.1818 117.858C91.1818 117.355 91.1818 116.852 91.1818 116.323C91.2173 116.036 91.3567 115.772 91.5735 115.58C91.7904 115.388 92.0699 115.282 92.3594 115.282L134.307 115.513L141.549 115.569C141.818 115.552 142.089 115.571 142.354 115.624C142.615 115.709 142.836 115.889 142.973 116.127C143.103 116.349 143.159 116.606 143.134 116.862C143.134 117.098 143.134 117.335 143.134 117.561C143.134 118.472 143.134 119.307 143.134 120.077C143.134 120.847 143.134 121.496 143.134 122.09C143.134 122.376 143.134 122.643 143.134 122.89C143.153 123.115 143.117 123.341 143.028 123.549C142.963 123.688 142.868 123.811 142.751 123.91C142.634 124.009 142.497 124.081 142.349 124.122C142.231 124.163 142.105 124.175 141.981 124.158Z" fill="#E0E0E0"/>
<path d="M118.577 96.1601L94.9041 96.0527L94.894 98.2717L118.567 98.3791L118.577 96.1601Z" fill="#02B634"/>
<path opacity="0.2" d="M118.577 96.1601L94.9041 96.0527L94.894 98.2717L118.567 98.3791L118.577 96.1601Z" fill="white"/>
<path d="M97.0448 120.052C97.0299 120.255 96.956 120.448 96.8321 120.609C96.7082 120.77 96.5399 120.891 96.3479 120.957C96.156 121.023 95.9489 121.031 95.7523 120.98C95.5557 120.93 95.3784 120.822 95.2422 120.672C95.106 120.522 95.0169 120.334 94.9861 120.134C94.9553 119.933 94.9841 119.728 95.0689 119.544C95.1536 119.359 95.2907 119.204 95.463 119.096C95.6353 118.989 95.8354 118.935 96.0383 118.94C96.3186 118.956 96.5816 119.081 96.77 119.29C96.9584 119.498 97.0571 119.772 97.0448 120.052Z" fill="#02B634"/>
<path d="M100.25 120.067C100.26 120.209 100.241 120.351 100.193 120.485C100.146 120.62 100.071 120.742 99.9743 120.846C99.8773 120.95 99.76 121.033 99.6295 121.09C99.4991 121.147 99.3584 121.176 99.2162 121.176C99.0739 121.176 98.9332 121.147 98.8028 121.09C98.6724 121.033 98.555 120.95 98.458 120.846C98.361 120.742 98.2864 120.62 98.2389 120.485C98.1915 120.351 98.1721 120.209 98.182 120.067C98.1721 119.925 98.1915 119.783 98.2389 119.649C98.2864 119.515 98.361 119.392 98.458 119.288C98.555 119.184 98.6724 119.101 98.8028 119.044C98.9332 118.988 99.0739 118.958 99.2162 118.958C99.3584 118.958 99.4991 118.988 99.6295 119.044C99.76 119.101 99.8773 119.184 99.9743 119.288C100.071 119.392 100.146 119.515 100.193 119.649C100.241 119.783 100.26 119.925 100.25 120.067Z" fill="#02B634"/>
<path d="M103.461 120.082C103.446 120.285 103.372 120.478 103.249 120.639C103.125 120.8 102.956 120.92 102.764 120.986C102.572 121.052 102.365 121.061 102.169 121.01C101.972 120.959 101.795 120.852 101.659 120.702C101.522 120.551 101.433 120.364 101.403 120.164C101.372 119.963 101.401 119.758 101.485 119.573C101.57 119.389 101.707 119.234 101.88 119.126C102.052 119.019 102.252 118.965 102.455 118.97C102.735 118.987 102.997 119.113 103.185 119.321C103.373 119.529 103.472 119.802 103.461 120.082Z" fill="#02B634"/>
<path d="M106.667 120.097C106.652 120.3 106.578 120.493 106.454 120.654C106.331 120.815 106.162 120.936 105.97 121.002C105.778 121.068 105.571 121.076 105.375 121.025C105.178 120.975 105.001 120.867 104.864 120.717C104.728 120.566 104.639 120.379 104.608 120.179C104.578 119.978 104.606 119.773 104.691 119.589C104.776 119.404 104.913 119.249 105.085 119.141C105.258 119.034 105.458 118.98 105.661 118.985C105.94 119.002 106.203 119.128 106.391 119.336C106.579 119.544 106.678 119.817 106.667 120.097Z" fill="#02B634"/>
<path d="M109.873 120.107C109.859 120.31 109.786 120.504 109.663 120.665C109.539 120.827 109.371 120.948 109.179 121.015C108.987 121.082 108.78 121.091 108.583 121.041C108.386 120.99 108.208 120.884 108.072 120.733C107.935 120.583 107.845 120.396 107.814 120.195C107.783 119.994 107.812 119.789 107.896 119.604C107.981 119.419 108.118 119.264 108.291 119.156C108.463 119.049 108.663 118.994 108.867 119C109.146 119.017 109.407 119.142 109.595 119.349C109.783 119.556 109.883 119.828 109.873 120.107Z" fill="#02B634"/>
<path d="M113.084 120.122C113.07 120.324 112.998 120.517 112.875 120.678C112.753 120.839 112.587 120.961 112.396 121.029C112.206 121.096 112 121.107 111.803 121.059C111.607 121.011 111.429 120.906 111.291 120.758C111.153 120.61 111.062 120.426 111.028 120.226C110.993 120.027 111.018 119.822 111.099 119.637C111.18 119.452 111.313 119.294 111.483 119.184C111.652 119.073 111.85 119.015 112.052 119.015C112.336 119.026 112.603 119.148 112.797 119.356C112.99 119.563 113.093 119.839 113.084 120.122Z" fill="#02B634"/>
<path d="M116.29 120.138C116.3 120.279 116.28 120.422 116.233 120.556C116.185 120.69 116.111 120.813 116.014 120.917C115.917 121.021 115.799 121.104 115.669 121.16C115.538 121.217 115.398 121.246 115.255 121.246C115.113 121.246 114.973 121.217 114.842 121.16C114.712 121.104 114.594 121.021 114.497 120.917C114.4 120.813 114.326 120.69 114.278 120.556C114.231 120.422 114.211 120.279 114.221 120.138C114.211 119.996 114.231 119.853 114.278 119.719C114.326 119.585 114.4 119.462 114.497 119.358C114.594 119.254 114.712 119.171 114.842 119.115C114.973 119.058 115.113 119.029 115.255 119.029C115.398 119.029 115.538 119.058 115.669 119.115C115.799 119.171 115.917 119.254 116.014 119.358C116.111 119.462 116.185 119.585 116.233 119.719C116.28 119.853 116.3 119.996 116.29 120.138Z" fill="#02B634"/>
<path d="M119.495 120.153C119.482 120.355 119.409 120.548 119.287 120.709C119.165 120.87 118.998 120.992 118.808 121.059C118.617 121.127 118.411 121.137 118.215 121.089C118.018 121.041 117.84 120.937 117.703 120.789C117.565 120.641 117.473 120.456 117.439 120.257C117.405 120.058 117.43 119.853 117.511 119.668C117.592 119.482 117.725 119.325 117.894 119.214C118.064 119.104 118.262 119.045 118.464 119.046C118.747 119.056 119.015 119.179 119.208 119.386C119.402 119.594 119.505 119.869 119.495 120.153Z" fill="#02B634"/>
<path d="M122.701 120.168C122.687 120.371 122.614 120.565 122.491 120.726C122.367 120.888 122.199 121.009 122.007 121.076C121.815 121.143 121.608 121.152 121.411 121.102C121.214 121.052 121.036 120.945 120.9 120.794C120.763 120.644 120.674 120.457 120.642 120.256C120.611 120.055 120.64 119.85 120.724 119.665C120.809 119.48 120.946 119.325 121.119 119.217C121.291 119.11 121.491 119.055 121.695 119.061C121.974 119.078 122.235 119.203 122.423 119.41C122.611 119.617 122.711 119.889 122.701 120.168Z" fill="#02B634"/>
<g opacity="0.2">
<path d="M97.0448 120.052C97.0299 120.255 96.956 120.448 96.8321 120.609C96.7082 120.77 96.5399 120.891 96.3479 120.957C96.156 121.023 95.9489 121.031 95.7523 120.98C95.5557 120.93 95.3784 120.822 95.2422 120.672C95.106 120.522 95.0169 120.334 94.9861 120.134C94.9553 119.933 94.9841 119.728 95.0689 119.544C95.1536 119.359 95.2907 119.204 95.463 119.096C95.6353 118.989 95.8354 118.935 96.0383 118.94C96.3186 118.956 96.5816 119.081 96.77 119.29C96.9584 119.498 97.0571 119.772 97.0448 120.052Z" fill="white"/>
<path d="M100.251 120.067C100.261 120.209 100.241 120.351 100.194 120.485C100.146 120.62 100.072 120.742 99.9746 120.846C99.8776 120.95 99.7602 121.033 99.6298 121.09C99.4993 121.147 99.3586 121.176 99.2164 121.176C99.0742 121.176 98.9335 121.147 98.803 121.09C98.6726 121.033 98.5552 120.95 98.4582 120.846C98.3612 120.742 98.2867 120.62 98.2392 120.485C98.1917 120.351 98.1723 120.209 98.1822 120.067C98.1723 119.925 98.1917 119.783 98.2392 119.649C98.2867 119.515 98.3612 119.392 98.4582 119.288C98.5552 119.184 98.6726 119.101 98.803 119.044C98.9335 118.988 99.0742 118.958 99.2164 118.958C99.3586 118.958 99.4993 118.988 99.6298 119.044C99.7602 119.101 99.8776 119.184 99.9746 119.288C100.072 119.392 100.146 119.515 100.194 119.649C100.241 119.783 100.261 119.925 100.251 120.067Z" fill="white"/>
<path d="M103.462 120.083C103.447 120.285 103.373 120.479 103.249 120.639C103.125 120.8 102.957 120.921 102.765 120.987C102.573 121.053 102.366 121.061 102.169 121.011C101.972 120.96 101.795 120.853 101.659 120.702C101.523 120.552 101.434 120.365 101.403 120.164C101.372 119.963 101.401 119.758 101.486 119.574C101.57 119.389 101.707 119.234 101.88 119.127C102.052 119.02 102.252 118.965 102.455 118.971C102.735 118.987 102.997 119.113 103.185 119.321C103.373 119.529 103.473 119.802 103.462 120.083Z" fill="white"/>
<path d="M106.667 120.098C106.652 120.3 106.578 120.494 106.454 120.654C106.331 120.815 106.162 120.936 105.97 121.002C105.778 121.068 105.571 121.076 105.375 121.026C105.178 120.975 105.001 120.868 104.864 120.717C104.728 120.567 104.639 120.38 104.608 120.179C104.578 119.979 104.606 119.773 104.691 119.589C104.776 119.405 104.913 119.249 105.085 119.142C105.258 119.035 105.458 118.98 105.661 118.986C105.94 119.003 106.203 119.128 106.391 119.336C106.579 119.544 106.678 119.818 106.667 120.098Z" fill="white"/>
<path d="M109.873 120.107C109.859 120.31 109.786 120.504 109.663 120.665C109.539 120.827 109.371 120.948 109.179 121.015C108.987 121.082 108.78 121.091 108.583 121.041C108.386 120.99 108.208 120.884 108.072 120.733C107.935 120.583 107.845 120.396 107.814 120.195C107.783 119.994 107.812 119.789 107.896 119.604C107.981 119.419 108.118 119.264 108.291 119.156C108.463 119.049 108.663 118.994 108.867 119C109.146 119.017 109.407 119.142 109.595 119.349C109.783 119.556 109.883 119.828 109.873 120.107Z" fill="white"/>
<path d="M113.084 120.122C113.07 120.324 112.998 120.517 112.875 120.678C112.753 120.839 112.587 120.961 112.396 121.029C112.206 121.096 112 121.107 111.803 121.059C111.607 121.011 111.429 120.906 111.291 120.758C111.153 120.61 111.062 120.426 111.028 120.226C110.993 120.027 111.018 119.822 111.099 119.637C111.18 119.452 111.313 119.294 111.483 119.184C111.652 119.073 111.85 119.015 112.052 119.015C112.336 119.026 112.603 119.148 112.797 119.356C112.99 119.563 113.093 119.839 113.084 120.122Z" fill="white"/>
<path d="M116.29 120.138C116.3 120.279 116.28 120.422 116.233 120.556C116.185 120.69 116.111 120.813 116.014 120.917C115.917 121.021 115.799 121.104 115.669 121.16C115.538 121.217 115.398 121.246 115.255 121.246C115.113 121.246 114.973 121.217 114.842 121.16C114.712 121.104 114.594 121.021 114.497 120.917C114.4 120.813 114.326 120.69 114.278 120.556C114.231 120.422 114.211 120.279 114.221 120.138C114.211 119.996 114.231 119.853 114.278 119.719C114.326 119.585 114.4 119.462 114.497 119.358C114.594 119.254 114.712 119.171 114.842 119.115C114.973 119.058 115.113 119.029 115.255 119.029C115.398 119.029 115.538 119.058 115.669 119.115C115.799 119.171 115.917 119.254 116.014 119.358C116.111 119.462 116.185 119.585 116.233 119.719C116.28 119.853 116.3 119.996 116.29 120.138Z" fill="white"/>
<path d="M119.496 120.153C119.482 120.355 119.409 120.548 119.287 120.709C119.165 120.87 118.999 120.992 118.808 121.059C118.618 121.127 118.411 121.137 118.215 121.089C118.019 121.041 117.841 120.937 117.703 120.789C117.565 120.641 117.473 120.456 117.439 120.257C117.405 120.058 117.43 119.853 117.511 119.668C117.592 119.482 117.725 119.325 117.895 119.214C118.064 119.104 118.262 119.045 118.464 119.046C118.747 119.056 119.015 119.179 119.209 119.386C119.402 119.594 119.505 119.869 119.496 120.153Z" fill="white"/>
<path d="M122.701 120.168C122.688 120.371 122.614 120.565 122.491 120.726C122.368 120.888 122.2 121.009 122.008 121.076C121.816 121.143 121.608 121.152 121.411 121.102C121.215 121.052 121.037 120.945 120.9 120.794C120.763 120.644 120.674 120.457 120.643 120.256C120.611 120.055 120.64 119.85 120.725 119.665C120.809 119.48 120.947 119.325 121.119 119.217C121.291 119.11 121.492 119.055 121.695 119.061C121.974 119.078 122.235 119.203 122.423 119.41C122.611 119.617 122.711 119.889 122.701 120.168Z" fill="white"/>
</g>
<path d="M118.147 47.5298C118.496 47.3759 118.793 47.1226 119 46.8014C119.206 46.4802 119.314 46.1053 119.309 45.7234C119.322 45.4751 119.285 45.2268 119.199 44.9936C119.112 44.7604 118.98 44.5471 118.809 44.3667C118.638 44.1864 118.431 44.0428 118.203 43.9446C117.975 43.8465 117.729 43.7959 117.48 43.7959C117.231 43.7959 116.985 43.8465 116.757 43.9446C116.528 44.0428 116.322 44.1864 116.151 44.3667C115.98 44.5471 115.847 44.7604 115.761 44.9936C115.675 45.2268 115.637 45.4751 115.65 45.7234C115.643 46.1091 115.75 46.4885 115.957 46.8136C116.165 47.1386 116.465 47.3949 116.818 47.5499C114 47.9726 114.126 51.0319 114.126 51.0319L120.789 51.0621C120.789 51.0621 120.945 47.9474 118.147 47.5298Z" fill="#02B634"/>
<path opacity="0.1" d="M118.147 47.5298C118.496 47.3759 118.793 47.1226 119 46.8014C119.206 46.4802 119.314 46.1053 119.309 45.7234C119.322 45.4751 119.285 45.2268 119.199 44.9936C119.112 44.7604 118.98 44.5471 118.809 44.3667C118.638 44.1864 118.431 44.0428 118.203 43.9446C117.975 43.8465 117.729 43.7959 117.48 43.7959C117.231 43.7959 116.985 43.8465 116.757 43.9446C116.528 44.0428 116.322 44.1864 116.151 44.3667C115.98 44.5471 115.847 44.7604 115.761 44.9936C115.675 45.2268 115.637 45.4751 115.65 45.7234C115.643 46.1091 115.75 46.4885 115.957 46.8136C116.165 47.1386 116.465 47.3949 116.818 47.5499C114 47.9726 114.126 51.0319 114.126 51.0319L120.789 51.0621C120.789 51.0621 120.945 47.9474 118.147 47.5298Z" fill="black"/>
<path d="M128.974 53.035L105.225 52.9272L105.212 55.7651L128.961 55.8729L128.974 53.035Z" fill="#02B634"/>
<path opacity="0.2" d="M128.974 53.035L105.225 52.9272L105.212 55.7651L128.961 55.8729L128.974 53.035Z" fill="white"/>
<path d="M41.6653 67.7422H41.4288L40.7443 67.7925C40.3739 67.8148 40.0056 67.8636 39.6422 67.9385C39.4068 67.9715 39.1733 68.0169 38.9426 68.0743L38.1626 68.2907C36.8349 68.6979 35.5822 69.3182 34.4535 70.1273C32.9623 71.2095 31.7171 72.5951 30.7998 74.1929C30.2607 75.114 29.8316 76.0952 29.5215 77.1163C29.1956 78.2262 29.008 79.372 28.9629 80.5278C28.9329 81.135 28.943 81.7435 28.9931 82.3493C28.9931 82.6562 29.0786 82.9632 29.1189 83.2751C29.1528 83.5896 29.2117 83.9009 29.295 84.206C29.7476 86.2251 30.6658 88.1105 31.9765 89.7119C33.2872 91.3132 34.954 92.5862 36.844 93.4291C38.2119 94.0193 39.6781 94.3487 41.1671 94.4003C42.7049 94.4848 44.2443 94.2642 45.6965 93.7512L46.1393 93.5851H46.1997L46.2501 93.6153L52.5962 96.8356L52.41 96.9966C51.7306 94.8934 51.0764 92.8555 50.4423 90.8982V90.8227L50.4976 90.7674C52.0371 89.2171 53.1799 87.3184 53.8292 85.2325C54.4173 83.3254 54.5889 81.3144 54.3325 79.3353C54.1044 77.5765 53.5388 75.8782 52.6667 74.3338C51.915 73.0071 50.9452 71.8164 49.7981 70.8116C48.8517 70.0163 47.8042 69.3496 46.6829 68.8291C45.8344 68.4632 44.9508 68.185 44.0457 67.9988L43.0392 67.8328L42.3095 67.7774L41.8666 67.7473H41.7156C41.7658 67.7417 41.8164 67.7417 41.8666 67.7473H42.3145L43.0443 67.7774L44.0508 67.9234C44.9671 68.0959 45.8628 68.3641 46.7231 68.7234C47.8637 69.2378 48.9301 69.9029 49.8937 70.7009C51.0619 71.7012 52.0522 72.8921 52.8227 74.2231C53.7195 75.7841 54.3025 77.5054 54.5388 79.29C54.8166 81.2997 54.6569 83.3456 54.0708 85.2878C53.4173 87.4172 52.2568 89.3562 50.6889 90.9384L50.7191 90.8076C51.3532 92.765 52.0124 94.8028 52.6969 96.901L52.7925 97.208L52.5056 97.0621L46.1595 93.8468H46.2702L45.8172 94.0128C44.3371 94.5336 42.7692 94.7592 41.2023 94.677C39.6813 94.6191 38.1844 94.2778 36.7887 93.6707C34.1262 92.5306 31.9111 90.5492 30.4828 88.0301C29.8254 86.8667 29.3454 85.6117 29.0585 84.3066C28.9799 83.9936 28.9211 83.676 28.8824 83.3557C28.8421 83.0387 28.7767 82.7267 28.7616 82.4147C28.6254 80.6244 28.8146 78.8241 29.3202 77.1012C29.6381 76.066 30.079 75.0727 30.6337 74.1426C31.5729 72.5302 32.844 71.1358 34.3629 70.0518C35.5102 69.2407 36.7839 68.6252 38.1324 68.2303L38.9225 68.029C39.1551 67.9751 39.3902 67.9331 39.6271 67.9032C39.9943 67.8353 40.3661 67.7949 40.7393 67.7825L41.4288 67.7573C41.5072 67.7468 41.5862 67.7417 41.6653 67.7422Z" fill="#02B634"/>
<path d="M44.534 79.476H43.603L41.5899 76.6482V74.7915C41.5899 74.7915 40.1506 74.7009 40.3217 77.1312C40.4928 79.5615 40.3217 78.9426 40.3217 78.9426C40.3217 78.9426 37.2669 78.9426 37.0152 79.2194C36.7636 79.4961 36.7485 82.4447 36.7133 84.0901C36.694 84.4867 36.8078 84.8784 37.0367 85.203C37.2656 85.5275 37.5963 85.7663 37.9765 85.8814C38.083 85.9109 38.193 85.9261 38.3036 85.9267C39.0686 85.9267 42.9588 85.3077 42.9588 85.3077H44.5642L44.534 79.476Z" fill="#02B634"/>
<path d="M47.1963 78.978L46.6225 85.3381H45.0322V79.1089L47.1963 78.978Z" fill="#02B634"/>
<path d="M66.1645 208.46V204.157L58.4495 204.102L58.384 210.608L58.8621 210.643C60.9909 210.779 69.6924 210.98 71.1217 210.538C72.712 210.045 66.1645 208.46 66.1645 208.46Z" fill="#02B634"/>
<path d="M71.3028 210.135C71.3028 210.206 68.4141 210.266 64.856 210.266C61.2979 210.266 58.4092 210.206 58.4092 210.135C58.4092 210.065 61.2979 210.004 64.856 210.004C68.4141 210.004 71.3028 210.065 71.3028 210.135Z" fill="#263238"/>
<path d="M66.3003 209.34C66.2349 209.305 66.3003 209.078 66.4564 208.837C66.6124 208.595 66.8237 208.495 66.8741 208.545C66.9244 208.595 66.8187 208.786 66.6677 208.993C66.5168 209.199 66.3658 209.375 66.3003 209.34Z" fill="#263238"/>
<path d="M66.7934 209.621C66.723 209.621 66.7582 209.339 66.9092 209.073C67.0601 208.806 67.2614 208.645 67.3168 208.685C67.3722 208.726 67.2816 208.952 67.1407 209.189C66.9997 209.425 66.8588 209.646 66.7934 209.621Z" fill="#263238"/>
<path d="M60.7343 210.115C60.7041 210.115 60.5883 210.024 60.4223 209.833C60.2195 209.587 59.9937 209.362 59.7479 209.159C59.5062 208.966 59.2182 208.839 58.9125 208.791C58.6759 208.761 58.525 208.791 58.5099 208.761C58.4948 208.731 58.6407 208.625 58.9175 208.605C59.2828 208.598 59.6391 208.719 59.924 208.947C60.191 209.165 60.4161 209.429 60.5883 209.727C60.7041 209.949 60.7645 210.095 60.7343 210.115Z" fill="#263238"/>
<path d="M66.3254 208.53C66.3606 208.59 66.2297 208.741 66.0083 208.822C65.7869 208.902 65.5906 208.872 65.5805 208.822C65.5705 208.771 65.7265 208.666 65.9177 208.595C66.109 208.525 66.2851 208.469 66.3254 208.53Z" fill="#263238"/>
<path d="M66.2047 208.112C66.2047 208.188 66.0034 208.249 65.7417 208.254C65.48 208.259 65.2736 208.198 65.2787 208.128C65.2837 208.057 65.49 207.991 65.7417 207.986C65.9933 207.981 66.1946 208.042 66.2047 208.112Z" fill="#263238"/>
<path d="M85.1626 208.46V204.157L77.4475 204.102L77.3821 210.543L77.8602 210.578C79.989 210.714 88.6955 210.98 90.1197 210.538C91.71 210.045 85.1626 208.46 85.1626 208.46Z" fill="#02B634"/>
<path d="M90.301 210.145C90.301 210.216 87.4173 210.277 83.8542 210.277C80.291 210.277 77.4124 210.216 77.4124 210.145C77.4124 210.075 80.2961 210.014 83.8542 210.014C87.4122 210.014 90.301 210.075 90.301 210.145Z" fill="#263238"/>
<path d="M85.2984 209.34C85.2381 209.305 85.2984 209.078 85.4545 208.837C85.6105 208.595 85.8218 208.495 85.8722 208.545C85.9225 208.595 85.8168 208.786 85.6658 208.993C85.5148 209.199 85.3639 209.375 85.2984 209.34Z" fill="#263238"/>
<path d="M85.7917 209.621C85.7263 209.621 85.7565 209.339 85.9125 209.073C86.0685 208.806 86.2648 208.645 86.3202 208.685C86.3755 208.726 86.2799 208.952 86.139 209.189C85.9981 209.425 85.8622 209.646 85.7917 209.621Z" fill="#263238"/>
<path d="M79.7326 210.115C79.7024 210.115 79.5917 210.024 79.4206 209.833C79.2178 209.587 78.992 209.362 78.7462 209.159C78.5044 208.966 78.2165 208.839 77.9108 208.791C77.6793 208.761 77.5232 208.791 77.5081 208.761C77.493 208.731 77.639 208.625 77.9158 208.605C78.2811 208.598 78.6374 208.719 78.9223 208.947C79.1906 209.164 79.416 209.428 79.5866 209.727C79.7024 209.949 79.7628 210.095 79.7326 210.115Z" fill="#263238"/>
<path d="M85.3237 208.53C85.3589 208.59 85.228 208.741 85.0066 208.822C84.7852 208.902 84.5889 208.872 84.5788 208.822C84.5688 208.771 84.7248 208.666 84.916 208.595C85.1073 208.525 85.2834 208.469 85.3237 208.53Z" fill="#263238"/>
<path d="M85.2131 208.112C85.2131 208.188 85.0118 208.249 84.7501 208.254C84.4884 208.259 84.2871 208.198 84.2921 208.128C84.2971 208.057 84.4984 207.991 84.7501 207.986C85.0017 207.981 85.2131 208.042 85.2131 208.112Z" fill="#263238"/>
<path d="M113.587 80.7037C113.386 80.4974 112.888 80.598 112.888 80.598C112.938 80.3083 112.938 80.0122 112.888 79.7225C112.797 79.4407 112.163 79.496 112.163 79.496C112.134 79.2588 112.134 79.0188 112.163 78.7815C112.168 78.7289 112.157 78.6761 112.13 78.6301C112.104 78.5842 112.065 78.5475 112.017 78.5249C111.717 78.4026 111.395 78.3443 111.071 78.3538C110.683 78.0771 112.253 75.8782 112.837 75.1738C113.421 74.4694 113.315 73.9209 112.797 73.9209C112.44 73.9209 110.608 76.0342 110.044 76.7437C109.48 77.4532 107.986 79.4256 107.935 77.8507C107.885 76.2757 107.251 75.0883 106.853 74.887C106.456 74.6857 106.033 75.1587 106.249 75.5965C106.44 76.0938 106.558 76.6156 106.602 77.1462C106.656 77.5689 106.638 77.9979 106.546 78.4142C106.38 79.1889 106.152 79.9493 105.867 80.6886H105.827C105.827 80.6886 94.8455 91.2199 94.0503 91.9697C93.3407 92.6439 79.0681 91.1696 76.2045 90.8677C75.2315 90.7254 74.2489 90.6581 73.2655 90.6665C72.0224 90.7218 71.801 90.8979 70.5629 90.913C67.4364 90.9477 64.3171 91.2219 61.2324 91.7332C59.8356 91.9706 58.5309 92.587 57.4606 93.5151C56.3903 94.4433 55.5956 95.6475 55.163 96.9964C52.2793 106.003 45.7469 127.323 44.5944 139.298C43.7236 140.877 42.9374 142.501 42.2392 144.164C41.4289 146.368 41.6252 146.443 41.8969 146.493C42.6317 146.629 43.4671 142.674 43.7791 143.63C44.0912 144.586 42.1939 148.345 42.9639 148.456C43.9704 148.597 44.7706 144.43 44.8662 144.098C44.9618 143.766 45.4601 143.872 45.3695 144.184C45.2235 144.627 43.8093 149.321 44.7957 149.472C45.3393 149.553 45.3997 148.561 45.3997 148.561C45.3997 148.561 46.4062 144.068 46.8642 144.159C47.3221 144.249 46.834 146.901 46.6025 147.787C46.371 148.672 46.693 149.12 47.1661 148.904C47.4882 148.753 48.2582 146.061 48.4696 145.185C48.681 144.31 49.2094 141.884 49.919 143.288C50.6286 144.692 51.7056 145.507 52.1484 145.527C52.2482 145.516 52.3423 145.475 52.4185 145.409C52.4948 145.344 52.5497 145.257 52.5762 145.16C52.6027 145.063 52.5997 144.961 52.5674 144.866C52.5351 144.771 52.4751 144.687 52.395 144.627C52.0141 144.255 51.6872 143.831 51.4237 143.369C51.189 143.008 51.0187 142.61 50.9205 142.191C50.7177 141.357 50.5997 140.504 50.5682 139.645L50.4877 139.142C51.615 133.562 54.861 117.184 59.5464 106.723L61.4689 110.678L62.3043 113.606L57.1811 126.251L79.0329 125.964L75.7717 113.415L79.7324 100.332C84.0152 100.428 95.0116 100.589 96.8434 99.7588C99.1484 98.7524 111.071 83.6975 111.071 83.6975C111.848 83.0938 112.592 82.4488 113.3 81.7653C113.3 81.7653 114.025 81.1565 113.587 80.7037Z" fill="#FFBE9D"/>
<path d="M56.2199 116.907C56.854 114.743 60.1102 104.046 60.1102 104.046C60.1102 104.046 61.7105 112.766 61.2878 113.817C60.8989 114.718 60.4395 115.586 59.9139 116.414C56.2199 122.034 56.7031 124.847 56.7031 124.847L79.0229 124.168C79.0732 121.048 77.2262 113.792 76.8437 112.635C76.4613 111.478 77.7345 107.689 77.7345 107.689C77.7345 107.689 80.2508 105.128 80.1603 103.809C80.1125 102.625 79.966 101.447 79.7224 100.287L93.3106 100.79L92.8828 91.5822L73.3662 89.6299C72.6868 91.547 66.5419 90.606 66.5419 90.606C59.9089 90.8274 59.4962 92.0451 56.7383 94.1886C53.9804 96.3321 49.4158 114.728 49.4158 114.728L56.2199 116.907Z" fill="#02B634"/>
<path d="M69.4156 114.728C69.0288 114.797 68.6349 114.818 68.243 114.789C67.5133 114.789 66.5118 114.738 65.4096 114.628C64.3075 114.517 63.311 114.361 62.6014 114.22C62.2101 114.17 61.8265 114.072 61.459 113.928C61.8525 113.928 62.245 113.965 62.6316 114.039C63.3462 114.129 64.3377 114.255 65.4348 114.366C66.5319 114.477 67.5284 114.552 68.248 114.602C68.6403 114.607 69.0313 114.65 69.4156 114.728Z" fill="#263238"/>
<path d="M70.9453 112.831C70.5584 113.021 70.1492 113.161 69.7274 113.249C67.7196 113.776 65.648 114.022 63.5725 113.978C63.143 113.992 62.7135 113.952 62.2942 113.858C62.7181 113.804 63.1453 113.782 63.5725 113.792C64.3626 113.767 65.4497 113.712 66.6474 113.571C67.8452 113.43 68.9121 113.229 69.667 113.068C70.0863 112.956 70.5137 112.877 70.9453 112.831Z" fill="#263238"/>
<path d="M78.4541 104.368C78.4439 104.752 78.3916 105.133 78.2981 105.505C78.1673 106.205 77.966 107.161 77.7093 108.207C77.4526 109.254 77.206 110.22 76.9846 110.874C76.8955 111.249 76.7638 111.612 76.592 111.956C76.6201 111.574 76.691 111.195 76.8034 110.829C76.9947 110.044 77.2111 109.138 77.4526 108.147C77.6942 107.156 77.9257 106.25 78.1169 105.465C78.1851 105.087 78.2983 104.719 78.4541 104.368Z" fill="#263238"/>
<path d="M56.4564 115.624C55.2921 115.444 54.1431 115.177 53.0191 114.824C51.8706 114.555 50.7435 114.202 49.6472 113.767C50.8109 113.95 51.9598 114.217 53.0845 114.567C54.2333 114.835 55.3604 115.188 56.4564 115.624Z" fill="#263238"/>
<path d="M79.9637 100.177C79.7739 100.21 79.5799 100.21 79.39 100.177C78.8643 100.123 78.3482 99.9995 77.8551 99.8096C77.0318 99.5003 76.2823 99.0223 75.6548 98.4061C75.0273 97.79 74.5356 97.0495 74.2114 96.2321C73.853 95.3329 73.7 94.3651 73.7635 93.3992C73.7859 92.6026 74.0242 91.827 74.453 91.1551C74.7545 90.7025 75.205 90.3696 75.7262 90.2141C75.8655 90.1757 76.0095 90.1571 76.154 90.1588C76.2547 90.1588 76.305 90.1588 76.305 90.1588C76.305 90.1588 76.0936 90.1588 75.7564 90.2947C75.2782 90.4713 74.8727 90.8024 74.604 91.2356C73.9195 92.3124 73.7283 94.2798 74.458 96.1164C74.7977 96.9823 75.3294 97.7599 76.0131 98.3907C76.5734 98.9068 77.2187 99.3222 77.9205 99.6184C78.5791 99.8787 79.2643 100.066 79.9637 100.177Z" fill="#263238"/>
<path d="M91.695 100.609C91.5691 99.0664 91.5288 97.5176 91.5742 95.9701C91.5348 94.424 91.5818 92.8768 91.7151 91.3359C91.8411 92.8773 91.8814 94.4244 91.8359 95.9701C91.8782 97.518 91.8312 99.067 91.695 100.609Z" fill="#263238"/>
<path d="M73.2354 90.194C73.2907 89.0719 73.4065 87.8039 73.4065 87.8039C73.4065 87.8039 76.1845 87.497 76.3506 84.6289C76.5167 81.7608 76.3506 75.1441 76.3506 75.1441L71.3179 72.5679L65.7317 76.9606L66.5923 91.301L71.7155 91.628C72.1071 91.6389 72.487 91.494 72.772 91.2252C73.0569 90.9563 73.2235 90.5855 73.2354 90.194Z" fill="#FFBE9D"/>
<path d="M73.7336 82.3593C73.7336 82.3593 73.7336 82.4146 73.6883 82.4801C73.6508 82.5275 73.6024 82.5651 73.5472 82.5897C73.4919 82.6142 73.4315 82.6249 73.3712 82.6209C73.0491 82.6209 72.7371 82.2486 72.6264 81.8159C72.5738 81.6061 72.5738 81.3866 72.6264 81.1768C72.6367 81.0853 72.6697 80.9977 72.7225 80.9222C72.7752 80.8466 72.846 80.7854 72.9283 80.7441C72.996 80.7162 73.072 80.7162 73.1397 80.7441C73.1899 80.769 73.2305 80.8097 73.2555 80.8598C73.2907 80.9454 73.2555 81.0007 73.2555 80.9957C73.2555 80.9907 73.2555 80.9454 73.2051 80.8951C73.1788 80.859 73.1401 80.834 73.0965 80.8247C73.0528 80.8154 73.0073 80.8225 72.9686 80.8447C72.9069 80.8821 72.8556 80.9344 72.8195 80.9968C72.7834 81.0593 72.7637 81.1299 72.7623 81.202C72.7199 81.3892 72.7199 81.5834 72.7623 81.7706C72.8629 82.1631 73.1347 82.4801 73.3762 82.5102C73.4235 82.5166 73.4716 82.5133 73.5175 82.5003C73.5634 82.4873 73.6061 82.465 73.643 82.4348C73.7034 82.3945 73.7235 82.3543 73.7336 82.3593Z" fill="#EB996E"/>
<path d="M78.0768 73.5941C77.6893 72.2758 76.2852 71.6216 75.0069 71.2594C73.0592 70.7059 70.9556 70.4643 69.0532 71.1638C67.1509 71.8632 64.8661 73.0909 64.8661 75.1891C63.7438 75.0986 63.0996 76.0797 62.6567 77.2974C62.3736 78.0393 62.2039 78.8196 62.1535 79.612C62.0126 82.3593 61.2426 86.1533 59.461 88.1659C58.4545 89.288 57.0604 90.0629 56.4867 91.4617C55.9834 92.6744 56.2451 94.1134 55.7771 95.3412C55.3594 96.423 54.4384 97.1928 53.764 98.1338C53.077 99.2012 52.6727 100.426 52.589 101.692C52.5054 102.959 52.7452 104.226 53.2859 105.374C53.8305 106.493 54.5973 107.49 55.5396 108.303C56.4818 109.116 57.5797 109.729 58.7665 110.104C61.1173 110.819 63.6241 110.844 65.9884 110.175C67.7627 109.75 69.418 108.93 70.8298 107.775C72.2743 106.595 73.2665 104.953 73.638 103.125C73.9953 101.072 73.4216 98.9841 72.9938 96.9413C71.6551 90.4856 72.0376 90.1484 73.7286 84.1557C73.7688 84.05 73.789 83.9393 73.8192 83.8336C73.8494 83.728 73.8645 83.6776 73.8846 83.5971C73.9326 83.3602 73.9579 83.1193 73.9601 82.8776C73.7131 82.9694 73.445 82.9889 73.1874 82.9336C72.9297 82.8783 72.6932 82.7507 72.5056 82.5656C72.3176 82.3683 72.1865 82.1238 72.1263 81.8581C72.066 81.5923 72.0789 81.3152 72.1634 81.0561C72.2822 80.7728 72.4591 80.5175 72.6828 80.3069C72.9064 80.0963 73.1719 79.935 73.4618 79.8334C74.0205 79.602 74.6193 79.4812 75.1679 79.2246C76.3305 78.6711 77.1357 77.5238 77.6842 76.3213C78.1352 75.4878 78.2744 74.5209 78.0768 73.5941Z" fill="#263238"/>
<path d="M73.9348 82.4946C74.0412 82.6517 74.129 82.8206 74.1965 82.9978C74.3475 83.3148 74.5488 83.7626 74.7703 84.2809L74.8105 84.3765H74.7048L74.2016 84.4218C73.8543 84.4218 73.5624 84.4872 73.2202 84.4822C73.1904 84.4755 73.1628 84.4613 73.1399 84.4411C73.117 84.4209 73.0996 84.3952 73.0894 84.3664C73.0744 84.3207 73.0744 84.2713 73.0894 84.2255C73.101 84.1577 73.1161 84.0905 73.1347 84.0243L73.2252 83.667C73.2708 83.4287 73.3416 83.1959 73.4366 82.9726C73.4272 83.2156 73.3918 83.4568 73.3309 83.6922L73.2605 84.0494C73.2353 84.1702 73.19 84.3564 73.2605 84.3413C73.5121 84.3413 73.8694 84.2859 74.2016 84.2658L74.7048 84.2205L74.6394 84.3312C74.423 83.828 74.2418 83.3551 74.1362 83.028C74.0434 82.8609 73.9756 82.6813 73.9348 82.4946Z" fill="#02B634"/>
<path d="M56.703 124.847L79.0228 124.168L88.7358 162.077L86.9492 205.561H75.1477L76.592 163.003L67.961 136.611L69.2897 207.247L57.3623 207.423L56.1091 141.029C56.0538 139.183 55.4499 135.021 55.6763 133.19L56.703 124.847Z" fill="#263238"/>
<path d="M70.9303 137.15C70.565 137.173 70.1982 137.151 69.8382 137.085C69.1638 137.004 68.2429 136.863 67.2313 136.662C66.2197 136.461 65.3139 136.229 64.6596 136.043C64.3099 135.966 63.9716 135.844 63.6531 135.681C63.6531 135.605 65.2937 135.998 67.3068 136.405C69.3198 136.813 70.9404 137.075 70.9303 137.15Z" fill="#455A64"/>
<path d="M86.8285 203.176C86.8285 203.247 84.1561 203.308 80.8598 203.308C77.5634 203.308 74.886 203.247 74.886 203.176C74.886 203.106 77.5583 203.045 80.8598 203.045C84.1612 203.045 86.8285 203.1 86.8285 203.176Z" fill="#455A64"/>
<path d="M69.1839 205.411C69.1839 205.486 66.5871 205.542 63.3863 205.542C60.1856 205.542 57.5938 205.486 57.5938 205.411C57.5938 205.335 60.1906 205.279 63.3863 205.279C66.5821 205.279 69.1839 205.34 69.1839 205.411Z" fill="#455A64"/>
<path d="M67.6441 205.229C67.5736 205.229 67.2616 189.797 66.9445 170.762C66.6275 151.727 66.4413 136.284 66.5067 136.284C66.5721 136.284 66.8942 151.711 67.2062 170.756C67.5183 189.802 67.7196 205.229 67.6441 205.229Z" fill="#455A64"/>
<path d="M85.2433 203.176C85.2377 203.107 85.2377 203.038 85.2433 202.97V202.366C85.2433 201.822 85.2835 201.042 85.3137 200.051C85.3842 198.039 85.4848 195.115 85.6106 191.533C85.8824 184.327 86.2649 174.395 86.6826 163.43C86.6826 163.325 86.6826 163.224 86.6826 163.134V163.169C84.0404 152.602 81.6499 143.012 79.9137 136.073L77.9006 127.866C77.6691 126.905 77.493 126.155 77.3672 125.632C77.3068 125.386 77.2665 125.194 77.2313 125.048C77.2117 124.983 77.1998 124.915 77.196 124.847C77.2222 124.911 77.2424 124.976 77.2564 125.043C77.2967 125.184 77.347 125.375 77.4175 125.617C77.5534 126.12 77.7496 126.885 78.0013 127.841C78.5045 129.783 79.2141 132.581 80.0999 136.028C81.8512 142.961 84.2669 152.527 86.9443 163.108V163.144C86.9443 163.234 86.9443 163.34 86.9443 163.44C86.4964 174.405 86.0887 184.332 85.7918 191.538C85.6358 195.125 85.5049 198.028 85.4144 200.051C85.364 201.058 85.3238 201.822 85.2986 202.366C85.2986 202.622 85.2684 202.824 85.2634 202.97C85.2641 203.039 85.2574 203.108 85.2433 203.176Z" fill="#455A64"/>
<path d="M81.3932 162.248C80.5455 162.527 79.6723 162.721 78.7863 162.827C77.6993 163.013 76.7732 163.144 76.3555 163.164V163.063C76.4914 163.103 76.5619 163.129 76.5619 163.149C76.5619 163.169 76.4763 163.149 76.3354 163.149H76.0334L76.3354 163.058C76.728 162.942 77.654 162.751 78.741 162.555C79.6129 162.366 80.5012 162.263 81.3932 162.248Z" fill="#455A64"/>
<path d="M81.1868 163.692C80.4018 163.728 79.6151 163.692 78.8365 163.586C78.0504 163.57 77.2673 163.484 76.4963 163.33C78.0691 163.201 79.6523 163.324 81.1868 163.692Z" fill="#455A64"/>
<path opacity="0.2" d="M56.6074 125.647C56.8718 125.987 57.2047 126.266 57.5845 126.468C57.9643 126.671 58.3825 126.79 58.8117 126.82C59.7106 126.926 60.6199 126.909 61.5143 126.769C67.2766 126.13 73.3813 125.542 79.0229 124.168C71.7205 124.576 64.0054 124.44 56.703 124.847L56.6275 125.471" fill="black"/>
<g opacity="0.2">
<path d="M64.1311 135.937L68.2478 151.908L67.961 136.611L64.1311 135.937Z" fill="black"/>
</g>
</svg>
